<svg width="87" height="85" viewBox="0 0 87 85" fill="none" xmlns="http://www.w3.org/2000/svg">
<path fill-rule="evenodd" clip-rule="evenodd" d="M47.2573 84.273C56.6875 83.1559 65.4673 78.8969 72.1821 72.1821L57.8376 57.8376C53.8569 61.8183 48.3577 64.2804 42.2834 64.2804C30.1347 64.2804 20.2863 54.432 20.2863 42.2833C20.2863 30.1347 30.1347 20.2862 42.2834 20.2862C53.2552 20.2862 62.3509 28.3191 64.0101 38.8246L84.0408 35.6358C82.5478 26.2577 77.9415 17.6552 70.9638 11.214C63.9861 4.77275 55.0432 0.8679 45.5759 0.128436C36.1085 -0.611028 26.6678 1.85795 18.7746 7.13764C10.8814 12.4173 4.99527 20.2004 2.06434 29.2329C-0.866581 38.2655 -0.671626 48.0217 2.6178 56.93C5.90723 65.8383 12.0996 73.38 20.1974 78.3401C28.2953 83.3003 37.827 85.3901 47.2573 84.273Z" fill="#8BB583"/>
<path fill-rule="evenodd" clip-rule="evenodd" d="M61.3252 57.0623C64.2755 53.1874 66.0359 48.2965 66.0359 42.98C66.0359 42.5558 66.0247 42.1343 66.0025 41.7159L86.2569 40.5502C86.8284 51.1879 83.6315 61.676 77.2657 70.0482L61.3252 57.0623Z" fill="#B9D6B7"/>
</svg>
